{"title":"Big Game (2014) 720p Blu-Ray x264 [Dual-Audio] [English 5.1 + Hi","uid":12392243,"size":1343366392,"categoryP":"video","categoryS":"movies","magnet":"?xt=urn:btih:8c434d8056334086a1aa5afc83e13bdb8ec8ba01&amp;dn=Big+Game+%282014%29+720p+Blu-Ray+x264+%5BDual-Audio%5D+%5BEnglish+5.1+%2B+Hi&amp;tr=udp%3A%2F%2Ftracker.openbittorrent.com%3A80&amp;tr=udp%3A%2F%2Fopen.demonii.com%3A1337&amp;tr=udp%3A%2F%2Ftracker.coppersurfer.tk%3A6969&amp;tr=udp%3A%2F%2Fexodus.desync.com%3A6969","seeders":25,"leechers":51,"uploader":"praneet_gupta777","files":2,"time":1441906314,"description":"[center]\n[b][size=7]Big Game (2014) 720p Blu-Ray x264 [Dual-Audio] [English 5.1 + Hindi 5.1] Esubs [PKG][/size][/b]\n\n\n\n\n\n[img]http://extraimago.com/images/2015/09/10/Standard.jpg[/img]\n\n\n\n[img]http://extraimago.com/images/2015/09/10/Untitled.png[/img]\n\n\n\n\n[img]http://img9.uploadhouse.com/fileuploads/15981/15981250a2a3770f9f004bcdf00afac92833ebdb.png[/img]\n\n\n[quote]\n\n\nGeneral\nUnique ID                   : 237428489539802730002484710036530623448 (0xB29F1052F02225659311E885078173D8)\nComplete name               : G:Big Game (2014) 720p Blu-Ray x264 [Dual-Audio] [English 5.1 + Hindi 5.1] Esubs [PKG]Big Game (2014) 720p Blu-Ray x264 [Dual-Audio] [English 5.1 + Hindi 5.1] Esubs [PKG].mkv\nFormat                      : Matroska\nFormat version              : Version 4 / Version 2\nFile size                   : 1.25 GiB\nDuration                    : 1h 30mn\nOverall bit rate            : 1 970 Kbps\nMovie name                  : Big Game (2014) 720p Blu-Ray x264 [Dual-Audio] [English 5.1 + Hindi 5.1] Esubs [PKG]\nEncoded date                : UTC 2015-09-09 08:38:05\nWriting application         : mkvmerge v7.7.0 ('Six Voices') 64bit built on Feb 28 2015 23:39:33\nWriting library             : libebml v1.3.1 + libmatroska v1.4.2\nDURATION                    : 01:30:29.408000000\nNUMBER_OF_FRAMES            : 169669\nNUMBER_OF_BYTES             : 260611584\n\n\nVideo\nID                          : 1\nFormat                      : AVC\nFormat/Info                 : Advanced Video Codec\nFormat profile              : &lt;a class=&quot;__cf_email__&quot; href=&quot;/cdn-cgi/l/email-protection&quot; data-cfemail=&quot;d79fbeb0bf979be3f9e6&quot;&gt;[email&amp;#160;protected]&lt;/a&gt;&lt;script data-cfhash='f9e31' type=&quot;text/javascript&quot;&gt;\n/* &lt;![CDATA[ */!function(){try{var t=&quot;currentScript&quot;in document?document.currentScript:function(){for(var t=document.getElementsByTagName(&quot;script&quot;),e=t.length;e--;)if(t[e].getAttribute(&quot;data-cfhash&quot;))return t[e]}();if(t&amp;&amp;t.previousSibling){var e,r,n,i,c=t.previousSibling,a=c.getAttribute(&quot;data-cfemail&quot;);if(a){for(e=&quot;&quot;,r=parseInt(a.substr(0,2),16),n=2;a.length-n;n+=2)i=parseInt(a.substr(n,2),16)^r,e+=String.fromCharCode(i);e=document.createTextNode(e),c.parentNode.replaceChild(e,c)}t.parentNode.removeChild(t);}}catch(u){}}()/* ]]&gt; */&lt;/script&gt;\nFormat settings, CABAC      : Yes\nFormat settings, ReFrames   : 9 frames\nCodec ID                    : V_MPEG4/ISO/AVC\nDuration                    : 1h 30mn\nBit rate                    : 1 138 Kbps\nWidth                       : 1 280 pixels\nHeight                      : 536 pixels\nDisplay aspect ratio        : 2.40:1\nFrame rate mode             : Constant\nFrame rate                  : 23.976 fps\nColor space                 : YUV\nChroma subsampling          : 4:2:0\nBit depth                   : 8 bits\nScan type                   : Progressive\nBits/(Pixel*Frame)          : 0.069\nStream size                 : 711 MiB (56%)\nTitle                       : [PKG]\nWriting library             : x264 core 146 r2538 121396c\nDefault                     : Yes\nForced                      : No\n\nAudio #1\nID                          : 3\nFormat                      : AC-3\nFormat/Info                 : Audio Coding 3\nMode extension              : CM (complete main)\nFormat settings, Endianness : Big\nCodec ID                    : A_AC3\nDuration                    : 1h 30mn\nBit rate mode               : Constant\nBit rate                    : 448 Kbps\nChannel(s)                  : 6 channels\nChannel positions           : Front: L C R, Side: L R, LFE\nSampling rate               : 48.0 KHz\nBit depth                   : 16 bits\nCompression mode            : Lossy\nStream size                 : 290 MiB (23%)\nTitle                       : [PKG]\nLanguage                    : Hindi\nDefault                     : Yes\n\n\nAudio #2\nID                          : 4\nFormat                      : AC-3\nFormat/Info                 : Audio Coding 3\nMode extension              : CM (complete main)\nFormat settings, Endianness : Big\nCodec ID                    : A_AC3\nDuration                    : 1h 30mn\nBit rate mode               : Constant\nBit rate                    : 384 Kbps\nChannel(s)                  : 6 channels\nChannel positions           : Front: L C R, Side: L R, LFE\nSampling rate               : 48.0 KHz\nBit depth                   : 16 bits\nCompression mode            : Lossy\nStream size                 : 249 MiB (19%)\nTitle                       : [PKG]\nLanguage                    : English\nDefault                     : No\n\n\nText\nID                          : 2\nFormat                      : UTF-8\nCodec ID                    : S_TEXT/UTF8\nCodec ID/Info               : UTF-8 Plain Text\nTitle                       : [PKG]\nLanguage                    : English\nDefault                     : Yes\nForced                      : No\n\nMenu\n00:00:00.000                : en:00:00:00.000\n00:10:20.870                : en:00:10:20.870\n00:18:14.343                : en:00:18:14.343\n00:31:51.284                : en:00:31:51.284\n00:41:10.093                : en:00:41:10.093\n00:46:41.924                : en:00:46:41.924\n00:56:13.245                : en:00:56:13.245\n00:59:12.966                : en:00:59:12.966\n01:04:44.839                : en:01:04:44.839\n01:12:32.682                : en:01:12:32.682\n01:16:08.939                : en:01:16:08.939\n01:21:27.800                : en:01:21:27.800\n\n\n[color=navy][size=6][b]SAMPLE WITHIN TORRENT[/b][/size][/color]\n\n\n\n\n\n[img]http://icons.iconarchive.com/icons/tribalmarkings/colorflow/256/screenshots-icon.png[/img]\n\n\n\n[img]http://extraimago.com/images/2015/09/10/BigGame2014720pBlu-Rayx264Dual-AudioEnglish5.1Hindi5.1EsubsPKG.mkv_thumbs_2015.09.10_20.54.25.jpg[/img]\n\n\n\n[/center]","torrent":{"xt":"urn:btih:8c434d8056334086a1aa5afc83e13bdb8ec8ba01","amp;dn":"Big+Game+%282014%29+720p+Blu-Ray+x264+%5BDual-Audio%5D+%5BEnglish+5.1+%2B+Hi","amp;tr":["udp%3A%2F%2Ftracker.openbittorrent.com%3A80","udp%3A%2F%2Fopen.demonii.com%3A1337","udp%3A%2F%2Ftracker.coppersurfer.tk%3A6969","udp%3A%2F%2Fexodus.desync.com%3A6969"],"infoHash":"8c434d8056334086a1aa5afc83e13bdb8ec8ba01","infoHashBuffer":{"type":"Buffer","data":[140,67,77,128,86,51,64,134,161,170,90,252,131,225,59,219,142,200,186,1]},"announce":[],"urlList":[]}}